<svg version="1" xmlns="http://www.w3.org/2000/svg" width="376" height="376" viewBox="0 0 282.000000 282.000000"><path d="M140.7.6c-.1.1-4.8.4-10.4.8C71.6 4.8 19.5 47.6 4.6 104.7l-1.5 5.5 7.7-7.4C34 80.3 63.5 70.9 95.5 75.5c6.6.9 19.8 5.1 26 8.2 6 3 20.7 12.6 22.4 14.7 1 1.1-.5 3.1-8.1 11l-9.3 9.7-5.5-4c-17.8-12.7-37.6-16.9-56.4-12.1-16 4.1-27.6 11.8-38.9 25.9-4.2 5.2-9.7 17.7-11.8 26.7C4.2 197.9 34 239.5 76 242.3c11.5.7 28.6-2.1 39.5-6.6 2.8-1.1 5.1-2.2 5.3-2.3.3-.2.4-20.5.2-28.9 0-2-.6-2.1-15.5-2-8.5 0-15.6-.2-15.6-.5-.1-.3-.2-6-.3-12.8l-.1-12.2 3-.1c3.3 0 52 0 54.6.1 1.5 0 1.7 3.2 1.8 35.1 0 19.4-.2 36.2-.5 37.4-.9 3.6-20.8 12.5-36.4 16.3-9.1 2.2-16.8 3.5-25.5 4.2-4.7.3 20.7 7.8 33 9.7 9.5 1.5 37.4.8 46.5-1.1 30.5-6.3 55.3-20.1 76.6-42.6 17.2-18.1 28.9-41.2 34.5-67.8 2.6-12.2 3.2-34.9 1.3-47.7-7.6-49.7-41.2-92-87.4-109.8-11.5-4.4-22.6-7.2-34-8.6C146.6.9 141 .3 140.7.6z"/></svg>