<svg xmlns="http://www.w3.org/2000/svg" viewBox="0 0 576 280.03"><defs><style>.cls-1{fill:#faa61b;}.cls-2{fill:#fff;}</style></defs><title>24g_logo</title><g id="Layer_2" data-name="Layer 2"><g id="Layer_1-2" data-name="Layer 1"><path id="G" class="cls-1" d="M436,0A140,140,0,0,0,299.35,109.48a97.63,97.63,0,0,1,76.11-36.32c26.13,0,47.62,9.53,66.13,25.31l-19,20.14c-12.79-11.16-29.66-18.51-46.26-18.51-38.64,0-68.3,32.66-68.3,70.76,0,37.82,29.66,70.48,68.3,70.48a95.7,95.7,0,0,0,40.82-9.26V201.6H385.26V175.75h59.6c-.05,23.4.27,47.53.27,71a6.69,6.69,0,0,1-2.18,4.35S417.66,267.32,381.32,269A140,140,0,1,0,436,0"/><path id="_4" data-name="4" class="cls-2" d="M236.09,202V122l-65.58,80Zm-95,1.09L240.92,77l20.2,0V202.56h22.05v21.5H261.12v41.25H235V224.6H141.12Z"/><path id="_2" data-name="2" class="cls-2" d="M0,265c20.13-22.86,61-69.7,81.07-93.61,13.6-15.24,20.68-28.85,20.68-39.73,0-13.88-9.53-29.67-33.47-29.67-15,0-27.22,10.34-34.56,18.24L16.85,103.9s20.4-26.67,52.79-26.67c38.91,0,59.59,24.76,59.59,53.34,0,21-11.43,35.37-26.12,53.06C88.84,200.86,70,222.89,54.09,241a.34.34,0,0,0,.27.57h73.43a.35.35,0,0,1,.35.35v22.71l-.35.35S-.06,265.06,0,265"/></g></g></svg>