<?xml version="1.0" encoding="UTF-8"?>
<svg width="14px" height="14px" viewBox="0 0 14 14" version="1.1" xmlns="http://www.w3.org/2000/svg" xmlns:xlink="http://www.w3.org/1999/xlink">
    <!-- Generator: Sketch 49 (51002) - http://www.bohemiancoding.com/sketch -->
    <title>thumbs_down</title>
    <desc>Created with Sketch.</desc>
    <defs></defs>
    <g id="Desktop" stroke="none" stroke-width="1" fill="none" fill-rule="evenodd">
        <g id="02-Desktop---Video-Player" transform="translate(-719.000000, -687.000000)" fill="#FAA61A">
            <g id="Video-Stats" transform="translate(50.000000, 680.000000)">
                <path d="M671.07397,9.50291545 C670.963415,9.39067055 670.831867,9.33381924 670.680728,9.33381924 C670.522591,9.33381924 670.389644,9.39067055 670.281887,9.50291545 C670.17413,9.61370262 670.119552,9.75364431 670.119552,9.9154519 C670.119552,10.0758017 670.17413,10.2113703 670.281887,10.3265306 C670.389644,10.4431487 670.522591,10.5014577 670.680728,10.5014577 C670.831867,10.5014577 670.963415,10.4431487 671.07397,10.3265306 C671.184526,10.2113703 671.240504,10.0758017 671.240504,9.9154519 C671.240504,9.75364431 671.184526,9.61370262 671.07397,9.50291545 M672.473411,14.9941691 C672.362855,15.1093294 672.231307,15.1676385 672.080168,15.1676385 L669.559776,15.1676385 C669.408637,15.1676385 669.277089,15.1093294 669.166533,14.9941691 C669.055978,14.8790087 669,14.7419825 669,14.5830904 L669,8.74927114 C669,8.59329446 669.055978,8.4548105 669.166533,8.33965015 C669.277089,8.22594752 669.408637,8.16763848 669.559776,8.16763848 L672.080168,8.16763848 C672.231307,8.16763848 672.362855,8.22594752 672.473411,8.33965015 C672.583966,8.4548105 672.639944,8.59329446 672.639944,8.74927114 L672.639944,14.5830904 C672.639944,14.7419825 672.583966,14.8790087 672.473411,14.9941691 M682.65014,12.53207 C682.666933,12.0714286 682.542383,11.6559767 682.273691,11.2842566 C682.373051,10.9431487 682.373051,10.5889213 682.273691,10.2172012 C682.185526,9.87172012 682.028788,9.58600583 681.80068,9.36005831 C681.853858,8.68075802 681.711116,8.13119534 681.372451,7.71137026 C680.9988,7.24927114 680.42503,7.01311953 679.648341,7 L679.333467,7 L678.668733,7 L678.520392,7 C678.135546,7 677.715714,7.04664723 677.259496,7.14285714 C676.804678,7.23469388 676.45062,7.32507289 676.197321,7.40670554 C675.942623,7.48688047 675.591363,7.60787172 675.142143,7.76676385 C674.42563,8.02623907 673.963814,8.16034985 673.759496,8.16763848 C673.608357,8.17346939 673.476809,8.23323615 673.366253,8.34548105 C673.255698,8.45626822 673.19972,8.59329446 673.19972,8.74927114 L673.19972,14.5918367 C673.19972,14.744898 673.252899,14.877551 673.357857,14.9897959 C673.462815,15.1020408 673.587365,15.164723 673.734306,15.1763848 C673.87425,15.1880466 674.095362,15.3658892 674.39904,15.7142857 C674.702719,16.0612245 674.996601,16.4285714 675.282087,16.8177843 C675.679528,17.345481 675.973411,17.7099125 676.166533,17.9110787 C676.271491,18.0204082 676.361056,18.164723 676.438025,18.3469388 C676.513595,18.5291545 676.563974,18.6778426 676.590564,18.7886297 C676.617153,18.9008746 676.656337,19.0845481 676.709516,19.3411079 C676.7501,19.5772595 676.786485,19.7623907 676.818673,19.8979592 C676.85086,20.0306122 676.906837,20.1880466 676.989404,20.3702624 C677.070572,20.5524781 677.169932,20.7055394 677.286086,20.8279883 C677.396641,20.9431487 677.528189,21 677.680728,21 C677.948021,21 678.188725,20.9664723 678.401439,20.9037901 C678.614154,20.8396501 678.789084,20.7623907 678.92623,20.6661808 C679.063375,20.5728863 679.180928,20.4504373 679.277489,20.2973761 C679.372651,20.1472303 679.442623,20.0102041 679.487405,19.8892128 C679.530788,19.7667638 679.565774,19.6151603 679.592363,19.4329446 C679.617553,19.2507289 679.632947,19.1137026 679.635746,19.0218659 C679.638545,18.9314869 679.639944,18.8134111 679.639944,18.6676385 C679.639944,18.4358601 679.610556,18.2040816 679.553179,17.9693878 C679.494402,17.7346939 679.438425,17.5568513 679.386645,17.4358601 C679.333467,17.3134111 679.255098,17.1413994 679.15014,16.9169096 L679.061975,16.7536443 L678.966813,16.5524781 L678.896841,16.3338192 L681.319272,16.3338192 C681.77549,16.3338192 682.167333,16.1588921 682.496202,15.8134111 C682.826469,15.46793 682.994402,15.058309 683,14.5830904 C683,14.048105 682.839064,13.5962099 682.518593,13.2259475 C682.606757,12.9577259 682.65014,12.7274052 682.65014,12.53207" id="thumbs_down"></path>
            </g>
        </g>
    </g>
</svg>