<?xml version="1.0" encoding="UTF-8"?>
<svg width="15px" height="14px" viewBox="0 0 15 14" version="1.1" xmlns="http://www.w3.org/2000/svg" xmlns:xlink="http://www.w3.org/1999/xlink">
    <!-- Generator: Sketch 49 (51002) - http://www.bohemiancoding.com/sketch -->
    <title>thumbs_up</title>
    <desc>Created with Sketch.</desc>
    <defs></defs>
    <g id="Desktop" stroke="none" stroke-width="1" fill="none" fill-rule="evenodd">
        <g id="02-Desktop---Video-Player" transform="translate(-654.000000, -685.000000)" fill="#FAA61A">
            <g id="Video-Stats" transform="translate(50.000000, 680.000000)">
                <path d="M606.222111,16.4982818 C606.103659,16.6105384 605.962715,16.6673956 605.80078,16.6673956 C605.631347,16.6673956 605.488904,16.6105384 605.373451,16.4982818 C605.257997,16.3860252 605.19952,16.2475268 605.19952,16.0842445 C605.19952,15.9253358 605.257997,15.7897532 605.373451,15.6745809 C605.488904,15.5579506 605.631347,15.4996355 605.80078,15.4996355 C605.962715,15.4996355 606.103659,15.5579506 606.222111,15.6745809 C606.340564,15.7897532 606.40054,15.9253358 606.40054,16.0842445 C606.40054,16.2475268 606.340564,16.3860252 606.222111,16.4982818 M607.721511,11.0064563 C607.603059,10.891284 607.462115,10.8329689 607.30018,10.8329689 L604.59976,10.8329689 C604.437825,10.8329689 604.296881,10.891284 604.178429,11.0064563 C604.059976,11.1216287 604,11.2586692 604,11.4175778 L604,17.2520046 C604,17.4079975 604.059976,17.545038 604.178429,17.6602104 C604.296881,17.7753827 604.437825,17.8336978 604.59976,17.8336978 L607.30018,17.8336978 C607.462115,17.8336978 607.603059,17.7753827 607.721511,17.6602104 C607.839964,17.545038 607.89994,17.4079975 607.89994,17.2520046 L607.89994,11.4175778 C607.89994,11.2586692 607.839964,11.1216287 607.721511,11.0064563 M618.466214,10.1856711 C618.109356,9.841612 617.688025,9.66666667 617.19922,9.66666667 L614.603758,9.66666667 L614.678729,9.447985 L614.780688,9.24679788 L614.87515,9.08351557 C614.987605,8.87649693 615.073071,8.70592523 615.133047,8.57325836 C615.191523,8.44059148 615.251499,8.25835676 615.311475,8.02509632 C615.369952,7.79475164 615.39994,7.56440696 615.39994,7.33260439 C615.39994,7.18681662 615.398441,7.06872852 615.395442,6.97688222 C615.392443,6.8864938 615.37595,6.7494533 615.34896,6.56721858 C615.320472,6.38498386 615.282987,6.23336457 615.236505,6.11090284 C615.188525,5.98989899 615.113555,5.85285848 615.011595,5.7012392 C614.908137,5.54961991 614.782187,5.42715818 614.635246,5.33239613 C614.488305,5.23763407 614.30088,5.16036655 614.072971,5.09476205 C613.845062,5.03207331 613.587165,5 613.30078,5 C613.137345,5 612.996401,5.05685723 612.877949,5.17202957 C612.753499,5.2944913 612.647041,5.44611059 612.560076,5.62834531 C612.471611,5.81058003 612.411635,5.9694887 612.377149,6.10215558 C612.342663,6.23628033 612.303679,6.4214308 612.260196,6.65906488 C612.203219,6.91419348 612.161236,7.09788608 612.132747,7.21014266 C612.104258,7.32239925 612.05028,7.47110278 611.969312,7.6533375 C611.886845,7.83557222 611.790884,7.97990211 611.678429,8.08924294 C611.471511,8.29043007 611.156637,8.65489951 610.730808,9.18265125 C610.42493,9.57190461 610.110056,9.93928981 609.784686,10.2862647 C609.459316,10.6346975 609.222411,10.8140165 609.072471,10.8242216 C608.915034,10.8358846 608.781587,10.8985734 608.669132,11.0108299 C608.556677,11.1230865 608.4997,11.2557534 608.4997,11.4073727 L608.4997,17.2520046 C608.4997,17.4079975 608.559676,17.5435801 608.678129,17.6558367 C608.796581,17.7680933 608.937525,17.8278663 609.09946,17.8336978 C609.318373,17.8395293 609.813175,17.9736541 610.580868,18.2346142 C611.062175,18.392065 611.438525,18.5130688 611.711415,18.59471 C611.982807,18.6763511 612.362155,18.7667396 612.84946,18.8585859 C613.338265,18.9548058 613.788085,19 614.20042,19 L614.359356,19 L615.071571,19 L615.408936,19 C616.241104,18.988337 616.855858,18.7507029 617.256198,18.2900135 C617.619052,17.8701447 617.771991,17.3205248 617.715014,16.6411538 C617.959416,16.4151828 618.127349,16.1294387 618.221811,15.7824638 C618.328269,15.4121629 618.328269,15.0564407 618.221811,14.7167552 C618.509696,14.3449964 618.643143,13.9295012 618.62515,13.467354 C618.62515,13.2734562 618.578669,13.0416536 618.484206,12.774862 C618.827569,12.3928981 619,11.9394981 619,11.4175778 C619,10.9423097 618.821571,10.532646 618.466214,10.1856711" id="thumbs_up"></path>
            </g>
        </g>
    </g>
</svg>