<svg xmlns="http://www.w3.org/2000/svg" viewBox="0 0 403.06 57.99"><defs><style>.cls-1{fill:#3b3b3b;}</style></defs><title>powered_by_24g</title><g id="Layer_2" data-name="Layer 2"><g id="Layer_1-2" data-name="Layer 1"><path class="cls-1" d="M2.47,57.25a.76.76,0,0,1-.75.74h-1A.75.75,0,0,1,0,57.25V18.55a.77.77,0,0,1,.8-.75h.63a.6.6,0,0,1,.69.57L2.3,20a11.65,11.65,0,0,1,7.52-2.75c6.37,0,11.08,5.34,11.08,12.05S16.08,41.34,9.3,41.34A10.5,10.5,0,0,1,2.47,39ZM9,38.93c5.57,0,9.36-4.25,9.36-9.7s-3.5-9.65-8.72-9.65A9.14,9.14,0,0,0,2.53,22.8V36.23A8.94,8.94,0,0,0,9,38.93Z"/><path class="cls-1" d="M40.66,17.23a11.79,11.79,0,0,1,11.54,12c0,6.71-5.11,12.11-11.54,12.11s-11.55-5.4-11.55-12.11A11.76,11.76,0,0,1,40.66,17.23Zm0,21.76c5.05,0,9-4.31,9-9.76,0-5.29-4-9.59-9-9.59a9.28,9.28,0,0,0-9.08,9.59C31.58,34.68,35.54,39,40.66,39Z"/><path class="cls-1" d="M59.66,18.72c-.17-.52-.17-.92.35-.92h1.26a.72.72,0,0,1,.75.52l5.4,18.08h0L74.3,17.74a.63.63,0,0,1,.69-.51h.23a.72.72,0,0,1,.69.51L82.75,36.4h0l5.4-18.08A.72.72,0,0,1,89,17.8h1.26c.52,0,.52.4.34.92l-6.89,22.1a.61.61,0,0,1-.68.52h-.23a.71.71,0,0,1-.69-.52l-7-19.35h-.06L68.16,40.82a.71.71,0,0,1-.69.52h-.23a.63.63,0,0,1-.69-.52Z"/><path class="cls-1" d="M109.39,17.23a10.1,10.1,0,0,1,10.39,10.5c0,.92,0,2.24-.86,2.24H100.61c.23,4.94,3.79,9.07,9,9.07a12.25,12.25,0,0,0,6.78-2.12c.52-.34.74-.4,1,0l.58.8c.17.23.11.58-.23.92-1.15,1.15-4.77,2.7-8.33,2.7-7,0-11.31-5.4-11.31-12.11C98.08,22.68,102.39,17.23,109.39,17.23Zm7.87,10.68c0-4.48-2.7-8.39-7.87-8.39a8.55,8.55,0,0,0-8.73,8.39Z"/><path class="cls-1" d="M129.43,18.55a.76.76,0,0,1,.75-.75h.69a.69.69,0,0,1,.69.63l.23,2.36A8.78,8.78,0,0,1,139,17.23a9.6,9.6,0,0,1,3.56.68c.52.18.81.58.64,1l-.46,1.15c-.18.4-.52.46-.92.28a7.43,7.43,0,0,0-3-.69,8,8,0,0,0-6.83,4V40a.67.67,0,0,1-.75.75h-1.15a.67.67,0,0,1-.63-.75Z"/><path class="cls-1" d="M160.38,17.23a10.11,10.11,0,0,1,10.4,10.5c0,.92,0,2.24-.86,2.24H151.6c.23,4.94,3.79,9.07,9,9.07a12.24,12.24,0,0,0,6.77-2.12c.52-.34.75-.4,1,0l.58.8c.17.23.11.58-.23.92-1.15,1.15-4.77,2.7-8.33,2.7-7,0-11.31-5.4-11.31-12.11C149.07,22.68,153.38,17.23,160.38,17.23Zm7.87,10.68c0-4.48-2.7-8.39-7.87-8.39a8.54,8.54,0,0,0-8.72,8.39Z"/><path class="cls-1" d="M190.07,17.23a11.57,11.57,0,0,1,7.06,2.29V1.32a.73.73,0,0,1,.75-.75h1a.75.75,0,0,1,.69.75V40a.76.76,0,0,1-.74.75h-.58a.74.74,0,0,1-.8-.75l-.17-2a11.14,11.14,0,0,1-7.93,3.33c-6,0-10.62-5.34-10.62-12.06S183.53,17.23,190.07,17.23ZM189.55,39A9.1,9.1,0,0,0,197.13,35V22.11a10.78,10.78,0,0,0-6.83-2.42c-5.28,0-9,4.14-9,9.59S184.73,39,189.55,39Z"/><path class="cls-1" d="M226.54,1.32a.76.76,0,0,1,.74-.75h1a.77.77,0,0,1,.75.75v18.2a11.86,11.86,0,0,1,7.12-2.29c6.48,0,11.25,5.22,11.25,12s-4.65,12.11-10.57,12.11a11,11,0,0,1-8-3.39L228.66,40a.74.74,0,0,1-.8.75h-.58a.76.76,0,0,1-.74-.75Zm10,37.72c4.83,0,8.33-4.42,8.33-9.76s-3.79-9.59-9.07-9.59a10.73,10.73,0,0,0-6.78,2.42V35A9.1,9.1,0,0,0,236.58,39Z"/><path class="cls-1" d="M253.81,18.72c-.23-.46-.17-.92.35-.92h1.26a.85.85,0,0,1,.75.52L266,37.72h.11l9-19.4a.84.84,0,0,1,.74-.52h1.27c.51,0,.57.46.34.92l-18,38.81a.82.82,0,0,1-.74.46h-1.32c-.46,0-.64-.28-.41-.8l7.76-16.65Z"/><path class="cls-1" d="M298.72,38c4.71-5.05,9.36-10.16,14.07-15.21,3.9-4.25,5.79-7.7,5.79-10.4,0-3.27-2.12-7.29-8-7.29-3.56,0-6.38,2.41-8.16,4.31a1,1,0,0,1-1.55,0l-1.15-1.09a1.13,1.13,0,0,1-.05-1.49s4.07-5.63,10.91-5.63c8.21,0,12.4,5.22,12.4,11.08,0,5.05-3.22,8.79-7.18,13-3.67,3.91-7.35,7.87-11,11.78h16.88a1.13,1.13,0,0,1,1.09,1.09v1.55a1.13,1.13,0,0,1-1.09,1.09H299.81a1.09,1.09,0,0,1-1.09-1.09Z"/><path class="cls-1" d="M329.15,30.83V28.71L350.92,1.44a1,1,0,0,1,.86-.35h1.14A1.09,1.09,0,0,1,354,2.18l.05,26.24h4.65a1,1,0,0,1,1.09,1v1.26a1.09,1.09,0,0,1-1.09,1.09h-4.65v7.87A1.13,1.13,0,0,1,353,40.77h-2a1.13,1.13,0,0,1-1.09-1.09V31.92h-19.7A1.09,1.09,0,0,1,329.15,30.83Zm21-2.47v-20L334,28.36Z"/><path class="cls-1" d="M388.41,0a20.21,20.21,0,0,1,13.9,5.34A1.11,1.11,0,0,1,402.37,7c-.52.51-1.15,1.09-1.61,1.61s-.86.51-1.49-.06A17.43,17.43,0,0,0,388.36,4c-9.08,0-16,7.58-16,16.48s6.89,16.59,16,16.59a21.61,21.61,0,0,0,10.33-2.41v-8h-6.6a1,1,0,0,1-1.09-1V23.48a1.06,1.06,0,0,1,1.09-1.09H402a1.08,1.08,0,0,1,1,1.09V36.63a1.41,1.41,0,0,1-.46.92,28.37,28.37,0,0,1-14.19,3.79,20.67,20.67,0,1,1,0-41.34Z"/></g></g></svg>